<svg xmlns="http://www.w3.org/2000/svg" width="1200" height="750" viewBox="0 0 1200 750" role="img" aria-label="Stylized synthetic cityscape illustration">
  <defs>
    <linearGradient id="bg" x1="0%" y1="0%" x2="100%" y2="100%">
      <stop offset="0%" stop-color="#4d2f9b"/>
      <stop offset="100%" stop-color="#00a7cc"/>
    </linearGradient>
    <linearGradient id="tower" x1="0%" y1="0%" x2="0%" y2="100%">
      <stop offset="0%" stop-color="#d1f6ff"/>
      <stop offset="100%" stop-color="#6cd6ff"/>
    </linearGradient>
  </defs>
  <rect width="1200" height="750" fill="url(#bg)"/>
  <circle cx="950" cy="140" r="110" fill="#9de6ff" opacity="0.7"/>
  <rect x="95" y="245" width="140" height="395" rx="6" fill="url(#tower)" opacity="0.86"/>
  <rect x="260" y="185" width="132" height="455" rx="6" fill="#b7ecff" opacity="0.9"/>
  <rect x="430" y="295" width="170" height="345" rx="6" fill="#99e2ff" opacity="0.82"/>
  <rect x="635" y="150" width="150" height="490" rx="6" fill="#c8f3ff" opacity="0.88"/>
  <rect x="815" y="245" width="145" height="395" rx="6" fill="#89dcff" opacity="0.84"/>
  <rect x="985" y="205" width="120" height="435" rx="6" fill="#b5f1ff" opacity="0.9"/>
  <path d="M0 655 C170 560, 360 720, 520 640 C690 560, 850 700, 1200 610 L1200 750 L0 750 Z" fill="#0f315a" opacity="0.85"/>
  <text x="56" y="90" fill="#effcff" font-family="Arial, sans-serif" font-size="40" letter-spacing="2">SYNTHETIC CITY</text>
</svg>
